<?xml version="1.0" encoding="utf-8"?>
<svg width="138px" height="68px" viewBox="0 0 547 270" version="1.1" xmlns="http://www.w3.org/2000/svg">
  <title>Artboard</title>
  <desc>Created with Sketch.</desc>
  <defs>
    <polygon id="path-1" points="0.9183 0.5679 273.371 0.5679 273.371 160 0.9183 160"/>
  </defs>
  <g id="Artboard" stroke="none" stroke-width="1" fill="none" fill-rule="evenodd">
    <g id="Group-34" transform="translate(3.000000, 3.000000)">
      <path d="M421.9092,28.2706 C426.0912,12.8916 436.9092,0.0006 436.9092,0.0006 C430.4152,6.5996 408.1092,7.0886 408.1092,7.0886 L290.5172,7.0886 L280.6132,105.1046 L400.9932,105.1046 L421.9092,28.2706 Z" id="Fill-1" fill="#99CC00"/>
      <g id="Group-5" transform="translate(264.000000, 99.569000)">
        <mask id="mask-2" fill="white">
          <polygon points="0.918 0.568 273.371 0.568 273.371 160 0.918 160"/>
        </mask>
        <g id="Clip-4"/>
        <path d="M245.8623,5.6279 L136.9933,5.5359 L112.4233,96.0039 L7.4363,96.0309 L0.9183,159.9969 L79.3153,159.9989 C79.3153,159.9989 94.8213,160.4449 98.7993,145.7819 L112.5733,96.0039 L205.0163,96.0039 C205.0163,96.0039 222.6673,96.3939 229.6463,82.8169 L258.8623,21.8609 C263.1463,12.2409 273.3713,0.5679 273.3713,0.5679 C265.2983,5.5829 245.8623,5.6279 245.8623,5.6279" id="Fill-3" fill="#99CC00" mask="url(#mask-2)"/>
      </g>
      <path d="M23.9414,94.984 L23.9414,101.458 C21.7824,102.124 19.8374,102.479 17.9574,102.479 C10.1374,102.479 5.2984,97.502 5.2984,89.619 C5.2984,81.981 10.0834,76.987 17.1794,76.987 C19.9114,76.987 22.4384,77.8 25.0934,79.498 L25.0934,74.572 C22.0824,73.974 19.5714,73.654 17.3664,73.654 C12.5844,73.654 8.5344,75.137 5.3824,78.012 C1.8574,81.269 0.0004,85.475 0.0004,90.016 C0.0004,95.599 2.7864,100.635 7.3374,103.369 C10.2604,105.143 13.6954,105.891 17.7864,105.891 C20.7984,105.891 24.1604,105.443 28.1404,104.556 L28.1404,89.592 L22.1284,89.592 C23.8024,91.025 23.9414,92.645 23.9414,94.984" id="Fill-6" fill="#91107F"/>
      <path d="M37.4668,105.152 L56.1738,105.152 L58.2938,99.134 C55.6058,100.929 52.8928,101.713 49.7688,101.713 C48.4058,101.713 46.4878,101.558 44.1178,101.191 L44.1178,90.148 L46.8948,90.148 C49.2188,90.148 50.7368,90.186 51.6258,91.316 L51.6258,86.81 L44.1178,86.81 L44.1178,78.139 C45.8318,77.773 47.4138,77.538 48.6958,77.538 C51.0348,77.538 52.8128,78.012 54.3368,79.252 L54.3368,74.385 L37.4668,74.385 C39.1488,75.864 39.2918,77.503 39.2918,79.791 L39.2918,99.716 C39.2918,102.035 39.1488,103.68 37.4668,105.152" id="Fill-8" fill="#91107F"/>
      <path d="M69.3135,101.672 C69.3135,101.271 69.3875,100.572 69.5385,99.63 L72.5515,79.354 L81.1505,100.095 C82.2045,102.568 83.2785,104.39 85.1035,105.526 L95.7555,79.261 L98.2715,100.929 C98.3305,101.191 98.3305,101.458 98.3305,101.672 C98.3305,103.184 97.7745,104.319 96.6425,105.152 L104.9545,105.152 C103.5975,103.724 102.9995,102.194 102.8285,100.272 L100.0995,79.177 C100.0405,78.435 100.0405,77.943 100.0405,77.59 C100.0405,76.234 100.3865,75.278 101.3485,74.385 L93.8325,74.385 L84.8115,97.21 L75.5975,74.385 L67.7735,74.385 C68.8035,75.411 69.3135,75.95 69.3135,77.073 C69.3135,77.682 69.2065,78.39 69.0625,79.261 L65.9815,99.943 C65.6405,101.992 64.9325,103.535 63.3515,105.152 L71.1625,105.152 C69.8155,104.078 69.3135,103.184 69.3135,101.672" id="Fill-10" fill="#91107F"/>
      <path d="M112.8281,105.152 L131.5341,105.152 L133.6511,99.134 C130.9681,100.929 128.2651,101.713 125.1461,101.713 C123.7671,101.713 121.8651,101.558 119.4951,101.191 L119.4951,90.148 L122.2551,90.148 C124.5991,90.148 126.1281,90.186 127.0481,91.316 L127.0481,86.81 L119.4951,86.81 L119.4951,78.139 C121.2241,77.773 122.7551,77.538 124.0831,77.538 C126.3971,77.538 128.1601,78.012 129.7071,79.252 L129.7071,74.385 L112.8281,74.385 C114.4851,75.864 114.6331,77.503 114.6331,79.791 L114.6331,99.716 C114.6331,102.035 114.4851,103.68 112.8281,105.152" id="Fill-12" fill="#91107F"/>
      <path d="M147.8823,101.191 L147.8823,90.148 L150.6483,90.148 C152.9883,90.148 154.5203,90.186 155.4233,91.316 L155.4233,86.81 L147.8823,86.81 L147.8823,78.139 C149.6003,77.773 151.1503,77.538 152.4903,77.538 C154.7823,77.538 156.5773,78.012 158.1363,79.252 L158.1363,74.385 L141.2473,74.385 C142.9183,75.864 143.0393,77.503 143.0393,79.791 L143.0393,99.716 C143.0393,102.035 142.9183,103.68 141.2473,105.152 L159.9093,105.152 L162.0623,99.134 C159.4083,100.929 156.6643,101.713 153.5213,101.713 C152.1833,101.713 150.2523,101.558 147.8823,101.191" id="Fill-14" fill="#91107F"/>
      <path d="M194.0762,79.7906 L194.0762,97.5016 L175.8822,74.3846 L169.6542,74.3846 C171.3212,75.8646 171.4392,77.5026 171.4392,79.7906 L171.4392,99.7166 C171.4392,102.0346 171.3212,103.6796 169.6542,105.1516 L176.6202,105.1516 C174.9722,103.6796 174.8832,102.0346 174.8832,99.7166 L174.8832,81.0466 L190.7322,101.0146 C193.1042,103.9996 194.8552,105.8326 197.4642,105.8916 L197.4642,79.7906 C197.4642,77.5026 197.5932,75.8646 199.2562,74.3846 L192.2812,74.3846 C193.9682,75.8646 194.0762,77.5026 194.0762,79.7906" id="Fill-16" fill="#91107F"/>
      <path d="M216.064,77.7731 L216.064,99.7161 C216.064,102.0351 215.946,103.6801 214.204,105.1521 L222.667,105.1521 C221.01,103.6801 220.872,102.0351 220.872,99.7161 L220.872,77.7731 L224.306,77.7731 C226.479,77.7731 227.962,78.2161 228.92,79.3541 L230.406,74.3851 L208.381,74.3851 L206.842,79.4361 C208.254,78.1711 210.422,77.7731 213.554,77.7731 L216.064,77.7731 Z" id="Fill-18" fill="#91107F"/>
      <path d="M238.0493,105.152 L256.7573,105.152 L258.9053,99.134 C256.1853,100.929 253.4783,101.713 250.3783,101.713 C249.0113,101.713 247.0823,101.558 244.7493,101.191 L244.7493,90.148 L247.5143,90.148 C249.8403,90.148 251.3733,90.186 252.2373,91.316 L252.2373,86.81 L244.7493,86.81 L244.7493,78.139 C246.4483,77.773 247.9743,77.538 249.2843,77.538 C251.6003,77.538 253.3813,78.012 254.8823,79.252 L254.8823,74.385 L238.0493,74.385 C239.7163,75.864 239.9153,77.503 239.9153,79.791 L239.9153,99.716 C239.9153,102.035 239.7163,103.68 238.0493,105.152" id="Fill-20" fill="#91107F"/>
      <path d="M106.5615,124.6954 L85.2635,124.6954 C88.2615,127.4724 88.4475,130.2394 88.4475,134.1064 L88.4475,145.7144 L71.0225,145.7144 L71.0225,134.1064 C71.0225,130.2394 71.1305,127.4724 74.1105,124.6954 L52.9885,124.6954 C56.0085,127.4724 56.0085,130.2394 56.0085,134.1064 L56.0085,168.7664 C56.0085,172.5344 55.9495,175.4074 52.9885,178.2524 L74.1105,178.2524 C71.1305,175.4074 71.0225,172.5344 71.0225,168.7664 L71.0225,154.0904 L88.4475,154.0904 L88.4475,168.7664 C88.4475,172.5344 88.2615,175.4074 85.2635,178.2524 L106.5615,178.2524 C103.5645,175.4074 103.4175,172.5344 103.4175,168.7664 L103.4175,134.1064 C103.4175,130.2394 103.5645,127.4724 106.5615,124.6954" id="Fill-22" fill="#91107F"/>
      <path d="M189.8135,124.6954 L168.6395,124.6954 C171.7035,127.4724 171.7035,130.2394 171.7035,134.1064 L171.7035,168.7664 C171.7035,172.5344 171.6205,175.4074 168.6395,178.2524 L189.8135,178.2524 C186.8065,175.4074 186.7055,172.5344 186.7055,168.7664 L186.7055,134.1064 C186.7055,130.2394 186.8065,127.4724 189.8135,124.6954" id="Fill-24" fill="#91107F"/>
      <path d="M220.8613,169.1749 L220.8613,134.1069 C220.8613,130.2389 220.9123,127.4719 223.9163,124.6959 L202.7623,124.6959 C205.8163,127.4719 205.8163,130.2389 205.8163,134.1069 L205.8163,168.7669 C205.8163,172.5339 205.7543,175.4069 202.7623,178.2519 L237.4083,178.2519 L240.2663,166.9679 C236.6933,169.4039 233.4123,170.5799 229.4403,170.5799 C226.5223,170.5799 223.7673,170.1049 220.8613,169.1749" id="Fill-26" fill="#91107F"/>
      <path d="M272.3721,171.6925 C263.7851,171.6925 257.5871,163.3135 257.5871,149.6635 C257.5871,138.2985 263.3181,131.9815 271.4471,131.9815 C280.1331,131.9815 286.2521,140.3515 286.2521,153.9045 C286.2521,165.3715 280.6731,171.6925 272.3721,171.6925 M302.2371,151.4635 C302.2371,135.0295 289.8391,123.4495 271.9141,123.4495 C263.9911,123.4495 256.7581,126.1425 251.2231,131.0405 C245.0791,136.5465 241.6861,144.0405 241.6861,151.3865 C241.6861,167.7535 254.1491,179.5125 271.9141,179.5125 C279.8951,179.5125 287.1201,176.8705 292.6791,171.8995 C298.8411,166.4525 302.2371,158.8015 302.2371,151.4635" id="Fill-28" fill="#91107F"/>
      <path d="M351.8887,153.9044 C351.8887,165.3714 346.2937,171.6924 337.9877,171.6924 C329.3847,171.6924 323.2217,163.3134 323.2217,149.6634 C323.2217,138.2994 328.9237,131.9814 337.0407,131.9814 C345.7537,131.9814 351.8887,140.3514 351.8887,153.9044 M316.8457,131.0404 C310.6937,136.5464 307.2797,144.0404 307.2797,151.3864 C307.2797,167.7534 319.7767,179.5124 337.5137,179.5124 C345.5257,179.5124 352.7597,176.8704 358.2947,171.8994 C364.4477,166.4524 367.8327,158.8014 367.8327,151.4644 C367.8327,135.0294 355.4797,123.4494 337.5137,123.4494 C329.6517,123.4494 322.3597,126.1424 316.8457,131.0404" id="Fill-30" fill="#91107F"/>
      <path d="M143.4307,170.5128 C141.4717,170.5128 137.7267,170.1578 135.7657,169.7838 L135.7657,153.6828 L146.1327,153.6828 C148.6607,153.6828 150.6487,154.6608 151.8777,156.3828 L151.8777,153.6238 L151.8827,153.6238 L151.8827,143.3478 C150.6487,145.0738 148.6607,146.0248 146.1327,146.0248 L135.7657,146.0248 L135.9057,146.1088 L135.7657,146.1088 L135.7657,132.7288 L150.1027,132.7288 C153.0657,132.7288 155.0497,133.3248 157.7417,135.8368 L154.5917,124.6958 L117.5027,124.6958 C120.6037,127.4718 120.6037,130.2398 120.6037,134.1068 L120.6037,168.7668 C120.6037,172.5338 120.5097,175.4078 117.5027,178.2518 L155.7057,178.2518 L158.5817,166.5768 C154.5917,169.5678 148.8207,170.5128 143.4307,170.5128" id="Fill-32" fill="#91107F"/>
    </g>
  </g>
</svg>