<svg id="hk_LOGO" data-name="hk LOGO" xmlns="http://www.w3.org/2000/svg" width="170.901" height="48.176" viewBox="0 0 170.901 48.176">
  <path id="Path_6098" data-name="Path 6098" d="M49.75,30.765l.31-.293c-.31-10.037-7.995-18.092-7.995-18.092S34.38,20.418,34.07,30.472l.31.293c7.375,7.375,7.685,19.014,7.685,19.014s.31-11.639,7.685-19.014Z" transform="translate(-4.718 -7.512)" fill="#f26531"/>
  <path id="Path_6099" data-name="Path 6099" d="M37.339,54.361s-11.639-.31-19.014-7.685c-.388-.388-.75-.784-1.094-1.189A38.685,38.685,0,0,0,0,49s7.237,9.606,17.541,11.071,19.807-5.712,19.807-5.712h-.009Z" transform="translate(0 -12.095)" fill="#14b1e7"/>
  <path id="Path_6100" data-name="Path 6100" d="M39.049,51.5c-.138-.146-8-8.434-8-18.687v-.62C23.67,25.11,12.35,24.8,12.35,24.8s.284,10.459,6.591,17.825a18.725,18.725,0,0,1,2.585.241c10.2,1.456,17.368,8.486,17.523,8.633Z" transform="translate(-1.71 -9.232)" fill="#b2d235"/>
  <path id="Path_6101" data-name="Path 6101" d="M40.118,54.367c-.146-.146-7.323-7.177-17.523-8.615-.862-.121-1.723-.2-2.585-.241.345.4.706.8,1.094,1.189C28.47,54.056,40.118,54.367,40.118,54.367Z" transform="translate(-2.771 -12.1)" fill="#00a651"/>
  <path id="Path_6102" data-name="Path 6102" d="M34.06,33.38V34c0,10.338,8.012,18.7,8.012,18.7s-.31-11.639-7.685-19.014l-.327-.3Z" transform="translate(-4.716 -10.42)" fill="#a51533"/>
  <path id="Path_6103" data-name="Path 6103" d="M63.458,45.488c-.345.4-.706.8-1.094,1.189C55,54.043,43.359,54.361,43.35,54.361s9.477,7.177,19.772,5.712S80.654,49,80.654,49A38.656,38.656,0,0,0,63.458,45.488Z" transform="translate(-6.003 -12.095)" fill="#14b1e7"/>
  <path id="Path_6104" data-name="Path 6104" d="M63.455,42.625C69.762,35.25,70.046,24.8,70.046,24.8s-11.32.31-18.7,7.392v.62c0,10.338-8,18.678-8.012,18.7s7.228-7.168,17.523-8.615A22.975,22.975,0,0,1,63.455,42.625Z" transform="translate(-6 -9.232)" fill="#b2d235"/>
  <path id="Path_6105" data-name="Path 6105" d="M63.458,45.49a18.726,18.726,0,0,0-2.585.241C50.535,47.2,43.359,54.347,43.35,54.347S55,54.028,62.364,46.662a10.922,10.922,0,0,0,1.094-1.172Z" transform="translate(-6.003 -12.097)" fill="#00a651"/>
  <path id="Path_6106" data-name="Path 6106" d="M51.345,29.69l-.31.293C43.66,37.357,43.35,49,43.35,49s8.012-8.374,8.012-18.7C51.362,30.1,51.354,29.9,51.345,29.69Zm125.559.388c0-1.973-1.542-2.766-2.9-3.282l-1.085-.4c-.9-.336-1.5-.543-1.5-1.4,0-.569.526-1,1.568-1a4.476,4.476,0,0,1,2.636.767l1.111-1.68a6.418,6.418,0,0,0-3.808-1.042c-2.128,0-3.791,1.223-3.791,3.076a3.181,3.181,0,0,0,2.585,3.1l1.086.388c.793.276,1.766.681,1.766,1.654s-1,1.111-1.792,1.111a6.807,6.807,0,0,1-3.127-1.137l-.862,1.973a8.44,8.44,0,0,0,3.989,1.086c2.473,0,4.11-1.068,4.11-3.239M162.5,15.182v8.15a4.29,4.29,0,0,0-3.084-1.042c-2.791,0-5.031,2.378-5.031,5.574s2.154,5.436,4.833,5.436a4.807,4.807,0,0,0,3.446-1.361v1.042h2.2v-17.8Zm-2.817,16.007c-1.723,0-2.946-1.422-2.946-3.446s1.223-3.377,2.9-3.377a3.069,3.069,0,0,1,2.989,3.351C162.629,29.733,161.483,31.189,159.682,31.189Zm-8.994,1.792V25.916c0-2.99-2.016-3.756-3.765-3.756a4.754,4.754,0,0,0-3.4,1.4V22.3h-2.361V32.981h2.361v-6.2a2.407,2.407,0,0,1,2.3-2.507,1.864,1.864,0,0,1,.379.017c1.266,0,2.128.638,2.128,2.266v6.427h2.361Zm-17.971-10.8a9.205,9.205,0,0,0-4.308.948l.862,1.9a5.035,5.035,0,0,1,2.834-.862c1.654,0,2.585.5,2.585,1.861v.207a13.492,13.492,0,0,0-2.042-.155c-3.058,0-5.307,1.628-5.307,3.868a3.451,3.451,0,0,0,3.765,3.377,6.2,6.2,0,0,0,3.015-.862c.138-.069.319-.181.569-.336v.862h2.361V25.623c.026-2.5-1.818-3.446-4.334-3.446Zm2,8.15a5.447,5.447,0,0,1-3,.9c-1.206,0-1.973-.638-1.973-1.611,0-1.292,1.723-1.878,3.334-1.878a10.426,10.426,0,0,1,1.637.086Zm-13.19-15.146h2.361v17.8h-2.361v-17.8Zm-6.875,0h2.361v17.8H114.65v-17.8Zm-9.468,6.9c-3.627,0-5.789,2.283-5.789,5.591s2.2,5.574,5.789,5.574,5.764-2.24,5.764-5.574S108.654,22.082,105.182,22.082Zm0,9.236a3.358,3.358,0,0,1-3.455-3.257c0-.129,0-.258.009-.388a3.4,3.4,0,1,1,6.78,0,3.361,3.361,0,0,1-3.05,3.644c-.086.009-.172.009-.258.009Zm-9.477,1.663v-17.8H92.983V22.72H83.454V15.182H80.732v17.8h2.722V25.029h9.529v7.952h2.722Zm61.4,21.366V47.239c0-3.007-2.033-3.782-3.791-3.782a4.791,4.791,0,0,0-3.446,1.413V43.655H147.5V54.347h2.369V47.722c0-1.723,1.189-2.076,2.688-2.076,1.284,0,2.145.638,2.145,2.274v6.427ZM138.394,43.371c-3.644,0-5.815,2.3-5.815,5.626s2.214,5.6,5.815,5.6,5.8-2.257,5.8-5.6A5.41,5.41,0,0,0,138.394,43.371Zm0,9.287a3.376,3.376,0,0,1-3.455-3.291c0-.121,0-.241.009-.37a3.446,3.446,0,1,1,6.815.009,3.377,3.377,0,0,1-3.119,3.618h-.224l-.026.034Zm-14.448-9.27c-3.653,0-5.815,2.3-5.815,5.626s2.214,5.6,5.815,5.6,5.789-2.257,5.789-5.6A5.4,5.4,0,0,0,123.946,43.388Zm0,9.287a3.376,3.376,0,0,1-3.455-3.291c0-.129,0-.25.009-.379a3.446,3.446,0,1,1,6.815.009,3.38,3.38,0,0,1-3.076,3.661c-.095.009-.19.009-.276.009h-.017Zm-7.03-8.262a3.572,3.572,0,0,0-2.3-.862,3.154,3.154,0,0,0-2.326,1.042l-.543.594V43.681h-2.369V54.347h2.369V48.4a2.339,2.339,0,0,1,2.214-2.455h.086a2.818,2.818,0,0,1,1.723.681Zm-9.658,9.925-8.641-9.77,7.573-8.124h-3.377l-7.047,7.642V36.444H93.034V54.338h2.731V45.413l7.8,8.925h3.7ZM118.406,9.4h-1.913a.971.971,0,0,1,1.008-.775.862.862,0,0,1,.862.775m.862.594V9.788a1.643,1.643,0,0,0-1.482-1.809,2.257,2.257,0,0,0-.241-.009A1.776,1.776,0,0,0,115.667,9.7v.155a1.72,1.72,0,0,0,1.568,1.861,2.076,2.076,0,0,0,.327,0,2.045,2.045,0,0,0,1.577-.612l-.431-.543a1.421,1.421,0,0,1-1.051.526,1.093,1.093,0,0,1-1.206-.965.652.652,0,0,1-.009-.129h2.783Zm-6.151,1.6v-.655h-.3c-.362,0-.543-.276-.543-.775V8.841h.741V8.16h-.741V6.73h-.784V8.16h-.594v.681h.594v1.49a1.148,1.148,0,0,0,.508,1.137,1.315,1.315,0,0,0,.7.2,1.4,1.4,0,0,0,.422-.069m-5.066,0V9.246a1.149,1.149,0,0,0-1.025-1.258,1.05,1.05,0,0,0-.233,0,1.6,1.6,0,0,0-1.137.474v-.4h-.793v3.549h.793V9.547a.8.8,0,0,1,.732-.862h.129a.664.664,0,0,1,.724.586.383.383,0,0,1-.009.172V11.58h.793l.026.017ZM100.9,9.392H99a.971.971,0,0,1,1.008-.775.862.862,0,0,1,.862.775m.862.594v-.2a1.643,1.643,0,0,0-1.482-1.809,2.257,2.257,0,0,0-.241-.009A1.776,1.776,0,0,0,98.178,9.7v.155a1.72,1.72,0,0,0,1.568,1.861,2.077,2.077,0,0,0,.327,0,2.045,2.045,0,0,0,1.577-.612l-.431-.543a1.421,1.421,0,0,1-1.051.526,1.093,1.093,0,0,1-1.206-.965A.652.652,0,0,1,98.953,10h2.774Zm-7.168-.594H92.629a.971.971,0,0,1,1.008-.775.862.862,0,0,1,.862.775m.862.594v-.2a1.643,1.643,0,0,0-1.482-1.809,2.257,2.257,0,0,0-.241-.009A1.776,1.776,0,0,0,91.8,9.7v.155a1.72,1.72,0,0,0,1.568,1.861,2.076,2.076,0,0,0,.327,0,2.045,2.045,0,0,0,1.577-.612l-.431-.543a1.4,1.4,0,0,1-1.042.526,1.1,1.1,0,0,1-1.172-1.017V10h2.766Zm-6.642,1.62V9.246A1.142,1.142,0,0,0,87.7,7.988a1.21,1.21,0,0,0-.25,0,1.6,1.6,0,0,0-1.223.526,1.058,1.058,0,0,0-1-.526,1.632,1.632,0,0,0-1.18.474v-.4h-.784v3.549h.784V9.59a.792.792,0,0,1,.715-.862.418.418,0,0,1,.146,0,.646.646,0,0,1,.681.612.787.787,0,0,1-.009.146v2.137h.732V9.547A.775.775,0,0,1,87,8.686a.636.636,0,0,1,.181,0,.661.661,0,0,1,.75.56.653.653,0,0,1,.009.129V11.58h.793l-.009.026ZM79.388,9.4H77.475a.971.971,0,0,1,1.008-.775.862.862,0,0,1,.862.775m.862.594V9.788a1.643,1.643,0,0,0-1.482-1.809,2.257,2.257,0,0,0-.241-.009A1.776,1.776,0,0,0,76.648,9.7v.155a1.72,1.72,0,0,0,1.568,1.861,2.077,2.077,0,0,0,.327,0,2.045,2.045,0,0,0,1.577-.612l-.414-.543a1.421,1.421,0,0,1-1.051.526,1.093,1.093,0,0,1-1.206-.965A.652.652,0,0,1,77.441,10h2.766Zm-7.392-.146A.994.994,0,0,1,72.022,11a1.538,1.538,0,0,1-.2.017,1.032,1.032,0,0,1-.965-1.094V9.9a1.019,1.019,0,0,1,.8-1.2.759.759,0,0,1,.146-.017,1.006,1.006,0,0,1,1.025.974,1.293,1.293,0,0,1-.017.19m.75,1.516V8.057h-.81v.31a1.437,1.437,0,0,0-1.06-.345,1.775,1.775,0,0,0-1.646,1.9v.026a1.648,1.648,0,0,0,1.516,1.766,1.618,1.618,0,0,0,1.189-.388v.448a.858.858,0,0,1-.913.8c-.034,0-.06-.009-.095-.009a1.855,1.855,0,0,1-1.051-.353l-.379.638a2.725,2.725,0,0,0,1.5.422,1.741,1.741,0,0,0,1.49-.646,2.21,2.21,0,0,0,.25-1.258" transform="translate(-6.003 -6.73)" fill="#a51533"/>
</svg>
