<?xml version="1.0" encoding="UTF-8"?>
<svg xmlns="http://www.w3.org/2000/svg" xmlns:xlink="http://www.w3.org/1999/xlink" width="100px" height="72px" viewBox="0 0 100 72" version="1.1">
  <title>Group 9</title>
  <defs>
    <linearGradient x1="-0.389479252%" y1="49.8874442%" x2="97.980478%" y2="49.8874442%" id="linearGradient-1">
      <stop stop-color="#0068A3" offset="28%"></stop>
      <stop stop-color="#1D778C" offset="36%"></stop>
      <stop stop-color="#79A841" offset="63%"></stop>
      <stop stop-color="#B3C612" offset="82%"></stop>
      <stop stop-color="#CAD200" offset="91%"></stop>
    </linearGradient>
    <linearGradient x1="-1.33930758%" y1="50%" x2="98.8418785%" y2="50%" id="linearGradient-2">
      <stop stop-color="#0068A3" offset="28%"></stop>
      <stop stop-color="#1D778C" offset="36%"></stop>
      <stop stop-color="#79A841" offset="63%"></stop>
      <stop stop-color="#B3C612" offset="82%"></stop>
      <stop stop-color="#CAD200" offset="91%"></stop>
    </linearGradient>
    <linearGradient x1="-7.27877578%" y1="50%" x2="537.178975%" y2="50%" id="linearGradient-3">
      <stop stop-color="#0068A3" offset="28%"></stop>
      <stop stop-color="#1D778C" offset="36%"></stop>
      <stop stop-color="#79A841" offset="63%"></stop>
      <stop stop-color="#B3C612" offset="82%"></stop>
      <stop stop-color="#CAD200" offset="91%"></stop>
    </linearGradient>
    <linearGradient x1="-896.646943%" y1="50%" x2="2807.29783%" y2="50%" id="linearGradient-4">
      <stop stop-color="#0068A3" offset="28%"></stop>
      <stop stop-color="#1D778C" offset="36%"></stop>
      <stop stop-color="#79A841" offset="63%"></stop>
      <stop stop-color="#B3C612" offset="82%"></stop>
      <stop stop-color="#CAD200" offset="91%"></stop>
    </linearGradient>
    <linearGradient x1="-347.943087%" y1="50%" x2="845.159295%" y2="50%" id="linearGradient-5">
      <stop stop-color="#0068A3" offset="28%"></stop>
      <stop stop-color="#1D778C" offset="36%"></stop>
      <stop stop-color="#79A841" offset="63%"></stop>
      <stop stop-color="#B3C612" offset="82%"></stop>
      <stop stop-color="#CAD200" offset="91%"></stop>
    </linearGradient>
    <linearGradient x1="-322.057721%" y1="50%" x2="444.733883%" y2="50%" id="linearGradient-6">
      <stop stop-color="#0068A3" offset="28%"></stop>
      <stop stop-color="#1D778C" offset="36%"></stop>
      <stop stop-color="#79A841" offset="63%"></stop>
      <stop stop-color="#B3C612" offset="82%"></stop>
      <stop stop-color="#CAD200" offset="91%"></stop>
    </linearGradient>
    <linearGradient x1="-451.591602%" y1="50%" x2="241.195395%" y2="50%" id="linearGradient-7">
      <stop stop-color="#0068A3" offset="28%"></stop>
      <stop stop-color="#1D778C" offset="36%"></stop>
      <stop stop-color="#79A841" offset="63%"></stop>
      <stop stop-color="#B3C612" offset="82%"></stop>
      <stop stop-color="#CAD200" offset="91%"></stop>
    </linearGradient>
    <linearGradient x1="-450.645204%" y1="50%" x2="93.6676866%" y2="50%" id="linearGradient-8">
      <stop stop-color="#0068A3" offset="28%"></stop>
      <stop stop-color="#1D778C" offset="36%"></stop>
      <stop stop-color="#79A841" offset="63%"></stop>
      <stop stop-color="#B3C612" offset="82%"></stop>
      <stop stop-color="#CAD200" offset="91%"></stop>
    </linearGradient>
    <linearGradient x1="-4.5416805%" y1="50%" x2="335.179342%" y2="50%" id="linearGradient-9">
      <stop stop-color="#0068A3" offset="28%"></stop>
      <stop stop-color="#1D778C" offset="36%"></stop>
      <stop stop-color="#79A841" offset="63%"></stop>
      <stop stop-color="#B3C612" offset="82%"></stop>
      <stop stop-color="#CAD200" offset="91%"></stop>
    </linearGradient>
    <linearGradient x1="-377.294118%" y1="50%" x2="224.411765%" y2="50%" id="linearGradient-10">
      <stop stop-color="#0068A3" offset="28%"></stop>
      <stop stop-color="#1D778C" offset="36%"></stop>
      <stop stop-color="#79A841" offset="63%"></stop>
      <stop stop-color="#B3C612" offset="82%"></stop>
      <stop stop-color="#CAD200" offset="91%"></stop>
    </linearGradient>
    <linearGradient x1="-450.825126%" y1="50%" x2="93.7050838%" y2="50%" id="linearGradient-11">
      <stop stop-color="#0068A3" offset="28%"></stop>
      <stop stop-color="#1D778C" offset="36%"></stop>
      <stop stop-color="#79A841" offset="63%"></stop>
      <stop stop-color="#B3C612" offset="82%"></stop>
      <stop stop-color="#CAD200" offset="91%"></stop>
    </linearGradient>
    <linearGradient x1="-185.376828%" y1="50%" x2="472.119556%" y2="50%" id="linearGradient-12">
      <stop stop-color="#0068A3" offset="28%"></stop>
      <stop stop-color="#1D778C" offset="36%"></stop>
      <stop stop-color="#79A841" offset="63%"></stop>
      <stop stop-color="#B3C612" offset="82%"></stop>
      <stop stop-color="#CAD200" offset="91%"></stop>
    </linearGradient>
    <linearGradient x1="-250.609756%" y1="50%" x2="329.594441%" y2="50%" id="linearGradient-13">
      <stop stop-color="#0068A3" offset="28%"></stop>
      <stop stop-color="#1D778C" offset="36%"></stop>
      <stop stop-color="#79A841" offset="63%"></stop>
      <stop stop-color="#B3C612" offset="82%"></stop>
      <stop stop-color="#CAD200" offset="91%"></stop>
    </linearGradient>
  </defs>
  <g id="Symbols" stroke="none" stroke-width="1" fill="none" fill-rule="evenodd">
    <g id="Group-9">
      <rect id="Rectangle" fill="#FFFFFF" x="0" y="0" width="100" height="72"></rect>
      <g id="Logo_DijkenWaard_CMYK-standaard_kleurverloop-Copy" transform="translate(0.000000, 4.000000)" fill-rule="nonzero">
        <path d="M91.852426,41.6903928 C91.3705435,41.6819989 90.8908874,41.6228413 90.4214057,41.5139003 C88.7876574,41.1132146 87.3947976,39.7585153 85.9184617,38.3251099 L85.5392413,37.9601997 C83.6002087,36.0879481 81.2104047,34.1584557 78.2028769,34.039204 C75.8059179,33.9485727 73.3755683,35.026608 70.7806514,37.3377059 C70.401431,37.6763807 70.0222106,38.0269807 69.6668406,38.3585004 C68.4194678,39.522397 67.2436461,40.6195126 65.8913319,41.2205411 C65.1412494,41.5535577 64.3267651,41.7164545 63.506298,41.6975479 L63.4419021,41.6975479 C62.9257507,41.6913351 62.4117021,41.6305767 61.9083253,41.5162853 C60.2817321,41.1179846 58.8888723,39.7656704 57.4125363,38.3346501 L57.0261608,37.9601997 C55.0871283,36.0903332 52.6973243,34.1608407 49.6897965,34.041589 C47.3047626,33.9485727 44.867258,35.026608 42.267571,37.3400909 C41.8883506,37.6787657 41.5115152,38.0293657 41.1585302,38.3585004 C39.9087725,39.522397 38.7329507,40.6195126 37.3782515,41.2205411 C36.6298369,41.5587778 35.8141528,41.7219146 34.9932176,41.6975479 L34.9145114,41.6975479 C34.4015112,41.6934361 33.8904851,41.6334565 33.3904748,41.5186703 C31.7591116,41.1203697 30.3638667,39.7656704 28.8875307,38.332265 L28.5059253,37.9625848 C26.5668927,36.0927182 24.1770888,34.1632258 21.169561,34.0439741 C18.7845271,33.9533428 16.3446374,35.0313781 13.7473355,37.342476 C13.3848103,37.6644555 13.0318253,38.0031304 12.6359097,38.3632705 C11.3885369,39.524782 10.2127152,40.6218976 8.85801595,41.2253112 C8.14793919,41.5414906 7.37906111,41.7040441 6.60177387,41.702318 L6.17008273,41.6880078 C5.73376286,41.673883 5.29993271,41.6163585 4.87500932,41.5162853 C3.24841619,41.1179846 1.85555638,39.7680555 0.379220392,38.3370351 L0,37.9578147 L1.83409108,36.0688679 L2.2156965,36.4385481 C3.37959305,37.5666692 4.57688008,38.7281807 5.51181337,38.9571439 C5.81193271,39.0228516 6.11806325,39.0572213 6.42528136,39.0597004 L6.77826638,39.0597004 C7.12975813,39.0452724 7.47532873,38.9643425 7.79667586,38.821197 C8.75068942,38.396661 9.7690989,37.4450324 10.8495193,36.4361631 C11.2478199,36.0664828 11.6222703,35.7206529 12.0086457,35.374823 C15.1378102,32.5891034 18.1715734,31.2916449 21.2816576,31.4132817 C25.1740329,31.5659238 28.0479988,33.8531713 30.3447865,36.0712529 L30.7287769,36.4433182 C31.8879034,37.5690542 33.0875755,38.7329507 34.0248938,38.961914 C34.3614016,39.0322178 34.7043004,39.0673869 35.0480733,39.0668555 L35.1291645,39.0668555 C35.5347258,39.0756938 35.9371767,38.994226 36.3073712,38.8283521 C37.2613848,38.4038161 38.2797943,37.4521875 39.3625997,36.4433182 C39.7275099,36.1022583 40.1186554,35.7397332 40.5217262,35.3819781 C43.6532757,32.5938734 46.6846538,31.2988 49.794738,31.4204368 C53.6871134,31.5730789 56.5610792,33.8603265 58.8578669,36.078408 L59.2418573,36.4504733 C60.4057539,37.5785943 61.6030409,38.7401058 62.5403592,38.9690691 C62.8760789,39.0392597 63.2181753,39.0744284 63.5611538,39.0740106 L63.6303197,39.0740106 C64.0404093,39.0818349 64.4473018,39.0004564 64.8228367,38.8355072 C65.7768503,38.4133562 66.7952597,37.4617277 67.8732951,36.4504733 C68.2405903,36.1070284 68.6341209,35.7349631 69.0348066,35.3867482 C72.1639711,32.6034136 75.2001193,31.3083402 78.3102035,31.4252068 C82.2025788,31.577849 85.0765447,33.8650965 87.3733323,36.0831781 L87.7525527,36.4504733 C88.9140642,37.5785943 90.1137363,38.7424909 91.0534397,38.9738392 C91.3551542,39.0396542 91.6628773,39.0740233 91.9716777,39.0763956 L92.2483417,39.0763956 C92.6232836,39.0714179 92.9933006,38.9902739 93.3359171,38.8378922 C94.2899307,38.4133562 95.3083402,37.4617277 96.3911456,36.4528583 C96.7632109,36.1070284 97.1066557,35.7922039 97.4429455,35.4845345 L99.2031005,37.4450324 C98.8739659,37.7383916 98.5472162,38.0412909 98.1870761,38.3799657 C96.9397034,39.5414772 95.7638816,40.6385928 94.4091824,41.2420064 C93.6967922,41.558829 92.9254458,41.7213888 92.1457852,41.7190389 L91.852426,41.6903928 Z" id="Path" fill="url(#linearGradient-1)"></path>
        <rect id="Rectangle" fill="url(#linearGradient-2)" x="0.918238056" y="22.9845718" width="97.409555" height="2.63307744"></rect>
        <path d="M0.918238056,16.3994932 L0.918238056,0 L13.6900947,0 C17.6301707,0 18.8417679,1.60751286 18.8417679,4.84638891 L18.8417679,11.7176716 C18.8417679,14.7872103 17.6301707,16.3994932 13.6900947,16.3994932 L0.918238056,16.3994932 Z M16.2182306,4.84638891 C16.2182306,2.95982709 15.6625177,2.42319445 13.7020198,2.42319445 L3.5513155,2.42319445 L3.5513155,13.9762987 L13.6900947,13.9762987 C15.6505925,13.9762987 16.2182306,13.4420511 16.2182306,11.6866662 L16.2182306,4.84638891 Z" id="Shape" fill="url(#linearGradient-3)"></path>
        <polygon id="Path" fill="url(#linearGradient-4)" points="23.2373854 16.3994932 23.2373854 0 25.6558098 0 25.6558098 16.3994932"></polygon>
        <path d="M28.5417008,16.3994932 L28.5417008,13.9762987 L31.8950585,13.9762987 C33.1018857,13.9762987 33.617053,13.6280838 33.617053,12.9054185 L33.617053,0 L36.2525155,0 L36.2525155,12.9054185 C36.2525155,14.9326973 34.9836774,16.3994932 31.8950585,16.3994932 L28.5417008,16.3994932 Z" id="Path" fill="url(#linearGradient-5)"></path>
        <polygon id="Path" fill="url(#linearGradient-6)" points="50.2765149 16.3994932 45.007975 9.08459417 43.2239696 9.08459417 43.2239696 16.3994932 40.6004323 16.3994932 40.6004323 0 43.2239696 0 43.2239696 6.66378475 44.9507341 6.66378475 50.1978088 0 53.3269732 0 47.1258851 7.63210852 53.3031229 16.389953"></polygon>
        <polygon id="Path" fill="url(#linearGradient-7)" points="63.224864 16.3994932 63.224864 0 77.3108743 0 77.3108743 2.42319445 65.8627115 2.42319445 65.8627115 6.52306775 76.7193859 6.52306775 76.7193859 8.9462622 65.8603265 8.9462622 65.8603265 13.9762987 77.3084892 13.9762987 77.3084892 16.3994932"></polygon>
        <polygon id="Path" fill="url(#linearGradient-8)" points="97.0398748 16.3994932 82.7034359 3.63479168 82.7034359 16.3994932 80.4066483 16.3994932 80.4066483 0 82.6819706 0 96.0381605 12.1827532 96.0381605 0 98.3349482 0 98.3349482 16.3994932"></polygon>
        <polygon id="Path" fill="url(#linearGradient-9)" points="20.117761 64 15.2856823 51.4213311 10.3558172 64 8.43347991 64 0.918238056 47.6005068 3.45114407 47.6005068 9.41372885 60.1791757 14.3054334 47.6005068 16.2659313 47.6005068 21.09801 60.1791757 27.0892152 47.6005068 29.6435865 47.6005068 22.1068793 64"></polygon>
        <path d="M74.0433778,64 L70.7758813,57.7846016 L63.4275919,57.7846016 L63.4275919,64 L60.8040546,64 L60.8040546,47.6005068 L72.6457479,47.6005068 C75.815458,47.6005068 77.0222852,49.2080197 77.0222852,51.5596631 L77.0222852,53.8254453 C77.0222852,55.9457405 76.0515764,57.460237 73.5759112,57.739286 L76.8648729,64 L74.0433778,64 Z M74.3796676,51.5358128 C74.3796676,50.5579489 73.8239547,50.0213162 72.6362078,50.0213162 L63.4275919,50.0213162 L63.4275919,55.3637922 L72.6362078,55.3637922 C73.8287248,55.3637922 74.3796676,54.8271596 74.3796676,53.8492957 L74.3796676,51.5358128 Z" id="Shape" fill="url(#linearGradient-10)"></path>
        <path d="M80.4066483,64 L80.4066483,47.6005068 L93.1785049,47.6005068 C97.1185809,47.6005068 98.3277931,49.2080197 98.3277931,52.4445107 L98.3277931,59.3181784 C98.3277931,62.3924871 97.1185809,64 93.1785049,64 L80.4066483,64 Z M95.6947157,52.4445107 C95.6947157,50.5579489 95.1390028,50.0213162 93.1785049,50.0213162 L83.0397257,50.0213162 L83.0397257,61.5768055 L93.1785049,61.5768055 C95.1390028,61.5768055 95.6947157,61.0401729 95.6947157,59.2943281 L95.6947157,52.4445107 Z" id="Shape" fill="url(#linearGradient-11)"></path>
        <polygon id="Path" fill="url(#linearGradient-12)" points="41.9694418 59.5876873 36.5983454 47.6005068 34.6378475 47.6005068 27.1273757 64 29.5982709 64 35.6276366 51.4213311 40.7435343 62.2660803"></polygon>
        <polygon id="Path" fill="url(#linearGradient-13)" points="49.2771857 47.6005068 51.2376835 47.6005068 58.583588 64 56.1985541 64 50.2669747 51.4213311 44.235224 64 41.7643288 64"></polygon>
      </g>
    </g>
  </g>
</svg>
