<?xml version="1.0" encoding="utf-8"?>
<svg width="224px" height="57.045px" viewBox="0 0 526 134" version="1.1" xmlns="http://www.w3.org/2000/svg">
  <title>Artboard</title>
  <desc>Created with Sketch.</desc>
  <defs>
    <polygon id="path-1" points="0.1986 0.9724 44.6186 0.9724 44.6186 48 0.1986 48"/>
  </defs>
  <g id="Artboard" stroke="none" stroke-width="1" fill="none" fill-rule="evenodd">
    <g id="Group-48" transform="translate(5.000000, 5.000000)">
      <g id="Group-3" transform="translate(177.000000, 70.531200)">
        <mask id="mask-2" fill="white">
          <polygon points="0.199 0.972 44.619 0.972 44.619 48 0.199 48"/>
        </mask>
        <g id="Clip-2"/>
        <path d="M7.9766,24.4844 C7.9766,14.0384 17.6186,5.6764 31.2326,5.6764 C35.3226,5.6764 39.0426,6.4424 42.2626,7.7804 L44.6186,2.9884 C40.5826,1.6864 36.0606,0.9724 31.2326,0.9724 C13.8966,0.9724 0.1986,10.6404 0.1986,24.4844 C0.1986,39.2464 13.8966,48.0004 31.2326,48.0004 C33.5106,48.0004 35.7186,47.8244 37.8466,47.5044 L40.6466,41.8124 C37.8206,42.7684 34.6526,43.3004 31.2326,43.3004 C17.6186,43.3004 7.9766,34.9344 7.9766,24.4844" id="Fill-1" fill="#002E5E" mask="url(#mask-2)"/>
      </g>
      <path d="M233.2852,94.6054 L245.6992,94.6054 L249.2032,102.4834 L255.6452,101.0594 L242.9252,74.3954 L236.8432,74.3954 L223.1392,101.0594 L229.2692,102.4834 L233.2852,94.6054 Z M243.9012,90.4694 L235.1912,90.4694 L239.6772,79.7274 L239.7772,79.7274 L243.9012,90.4694 Z" id="Fill-4" fill="#002E5E"/>
      <path d="M266.254,96.4804 C267.898,97.3524 270.578,98.3484 272.532,98.3484 C276.188,98.3484 278.25,96.5564 278.25,94.3704 C278.204,88.8784 263.624,91.2264 263.624,81.8344 C263.624,77.3404 268.358,73.8344 275.524,73.8344 C279.078,73.8344 282.528,74.7884 285.566,76.1444 L282.782,79.8044 C280.622,78.8904 278.614,77.9744 276.036,77.9744 C273.046,77.9744 270.214,79.2064 270.214,81.6764 C270.214,87.0864 285.154,85.3744 285.154,94.1704 C285.154,98.8624 280.262,102.4844 273.36,102.4844 C269.91,102.4844 266.66,101.7304 263.676,100.3784 L266.254,96.4804 Z" id="Fill-6" fill="#002E5E"/>
      <polygon id="Fill-8" fill="#002E5E" points="303.6992 78.7714 293.7052 78.7714 293.7572 74.3954 320.1852 74.3954 320.1292 78.7714 310.2932 78.7714 310.0312 101.9294 303.4412 101.9294"/>
      <path d="M330.3282,101.9296 L337.0782,101.9296 L337.1262,90.9096 L339.1922,90.9096 C340.1662,90.9096 340.9402,91.1856 341.5542,91.8636 L351.4502,102.4836 L357.3242,99.7816 L347.1742,89.5116 C351.3482,88.3596 354.0722,85.8556 354.0722,82.3476 C354.0722,77.9736 350.5702,74.3936 341.9662,74.3936 L330.6882,74.3936 L330.3282,101.9296 Z M337.2262,86.7676 L337.3322,78.5316 L341.1442,78.5316 C344.4882,78.5316 347.1742,79.8836 347.1742,82.5096 C347.1742,86.0936 343.2622,86.7676 341.3002,86.7676 L337.2262,86.7676 Z" id="Fill-10" fill="#002E5E"/>
      <polygon id="Fill-12" fill="#002E5E" points="367.0528 74.3944 373.6488 74.3944 373.3448 101.9304 366.7468 101.9304"/>
      <path d="M416.039,99.8164 C412.747,101.6084 408.729,102.4844 404.707,102.4844 C394.101,102.4844 386.219,96.4804 386.219,88.2424 C386.219,79.7684 393.843,73.8344 404.449,73.8344 C408.677,73.8344 412.847,74.9104 416.091,77.0204 L413.211,80.5624 C411.047,79.1284 407.493,78.2144 404.661,78.2144 C397.707,78.2144 393.117,82.5104 393.117,88.0004 C393.117,93.2584 397.805,98.1084 404.449,98.1084 C408.983,98.1084 411.251,97.2744 413.415,96.3224 L416.039,99.8164 Z" id="Fill-14" fill="#002E5E"/>
      <path d="M455.0878,91.9804 C454.9838,98.7444 448.9058,102.4844 440.4038,102.4844 C431.9578,102.4844 426.0338,98.8244 426.0338,91.7004 C426.0338,85.9344 426.1878,80.1604 426.2418,74.3944 L432.8358,74.3944 C432.7838,80.2424 432.6278,86.1284 432.6278,91.9804 C432.6278,95.8384 436.1298,98.1084 440.5078,98.1084 C445.7138,98.1084 448.4478,95.4384 448.4958,91.7004 L448.7018,74.3944 L455.2978,74.3944 L455.0878,91.9804 Z" id="Fill-16" fill="#002E5E"/>
      <polygon id="Fill-18" fill="#002E5E" points="473.1192 74.3944 479.8632 74.3944 488.5152 96.3984 488.6212 96.3984 498.5092 74.3944 505.2592 74.3944 510.5152 101.9304 503.8232 102.4844 501.1392 80.7584 501.0332 80.7584 491.9712 101.9304 485.1712 101.9304 476.9752 80.7584 476.8752 80.7584 473.1652 102.4844 466.8352 101.9304"/>
      <path d="M244.0186,60.209 C242.8346,60.209 241.9146,60.913 241.9146,61.937 C241.9146,62.787 242.6386,63.549 243.9526,63.549 C245.5746,63.549 246.1886,62.787 246.1886,61.893 C246.1886,60.913 245.5746,60.209 244.0186,60.209 Z M243.6466,69.671 C245.0046,69.671 247.2846,69.189 247.2846,67.989 C247.2846,67.153 246.3626,66.889 242.8346,66.463 C240.9286,67.153 240.4466,67.621 240.4466,68.295 C240.4466,69.379 242.3746,69.671 243.6466,69.671 Z M249.7386,60.545 L247.1526,60.501 C247.7446,60.955 247.9406,61.439 247.9406,61.909 C247.9406,63.315 246.2546,64.339 244.1286,64.339 C243.4266,64.339 242.8346,64.251 242.2226,64.061 C241.2126,64.559 241.0166,64.735 241.0166,64.911 C241.0166,65.173 241.3666,65.379 244.4786,65.687 C247.3286,65.965 249.1686,66.433 249.1686,67.739 C249.1686,69.525 245.9906,70.375 243.7326,70.375 C241.7826,70.375 238.6926,70.009 238.6926,68.325 C238.6926,67.299 240.4686,66.713 241.6306,66.303 L241.6306,66.273 C239.7006,66.157 239.0006,65.775 239.0006,65.335 C239.0006,64.897 239.6566,64.515 241.5426,63.797 C240.5346,63.269 240.1606,62.669 240.1606,61.821 C240.1606,60.385 242.0026,59.417 244.0626,59.417 C244.7646,59.417 245.4866,59.505 246.1006,59.753 L249.7386,59.711 L249.7386,60.545 Z" id="Fill-20" fill="#002E5E"/>
      <path d="M264.5762,62.3182 C264.5762,61.2762 263.9182,60.2962 262.1422,60.2962 C260.5002,60.2962 259.4482,61.3222 259.1622,62.3182 L264.5762,62.3182 Z M259.0102,63.1102 L259.0102,63.3582 C259.0102,64.8802 259.8642,66.2442 262.1002,66.2442 C263.3482,66.2442 264.2702,65.7602 265.2102,65.1902 L266.0662,65.8182 C264.9482,66.5662 263.5242,67.1222 261.9022,67.1222 C258.8762,67.1222 257.1242,65.6582 257.1242,63.2702 C257.1242,61.2642 259.1842,59.4182 262.1202,59.4182 C265.0582,59.4182 266.3282,60.9122 266.3282,62.8742 L266.3282,63.1102 L259.0102,63.1102 Z" id="Fill-22" fill="#002E5E"/>
      <path d="M275.1602,59.623 L276.9362,59.623 L276.9142,60.691 L276.9562,60.691 C277.8562,59.959 279.0842,59.417 280.5522,59.417 C281.9102,59.417 283.0062,59.871 283.2902,60.765 C284.2342,60.077 285.7022,59.417 287.0842,59.417 C289.3402,59.417 290.1502,60.283 290.1502,61.629 C290.1502,62.185 290.1282,62.743 290.1282,63.299 L290.0862,66.917 L288.3322,66.917 L288.3762,63.637 C288.3762,62.993 288.3982,62.347 288.3982,61.629 C288.3982,60.837 287.6102,60.473 286.6662,60.473 C285.3722,60.473 284.4322,60.999 283.5542,61.687 L283.4242,66.917 L281.6922,66.917 L281.7362,63.637 C281.7362,62.993 281.7582,62.347 281.7582,61.629 C281.7582,60.837 280.9682,60.473 280.0262,60.473 C278.7322,60.473 277.7902,60.999 276.9142,61.687 L276.7842,66.917 L275.0302,66.917 L275.1602,59.623 Z" id="Fill-24" fill="#002E5E"/>
      <path d="M306.3028,62.3182 C306.3028,61.2762 305.6468,60.2962 303.8708,60.2962 C302.2268,60.2962 301.1748,61.3222 300.8908,62.3182 L306.3028,62.3182 Z M300.7368,63.1102 L300.7368,63.3582 C300.7368,64.8802 301.5928,66.2442 303.8268,66.2442 C305.0768,66.2442 305.9968,65.7602 306.9388,65.1902 L307.7928,65.8182 C306.6768,66.5662 305.2528,67.1222 303.6288,67.1222 C300.6048,67.1222 298.8508,65.6582 298.8508,63.2702 C298.8508,61.2642 300.9128,59.4182 303.8468,59.4182 C306.7848,59.4182 308.0568,60.9122 308.0568,62.8742 L308.0568,63.1102 L300.7368,63.1102 Z" id="Fill-26" fill="#002E5E"/>
      <path d="M323.5078,62.3182 C323.5078,61.2762 322.8498,60.2962 321.0738,60.2962 C319.4298,60.2962 318.3798,61.3222 318.0938,62.3182 L323.5078,62.3182 Z M317.9398,63.1102 L317.9398,63.3582 C317.9398,64.8802 318.7958,66.2442 321.0318,66.2442 C322.2798,66.2442 323.1998,65.7602 324.1418,65.1902 L324.9978,65.8182 C323.8798,66.5662 322.4558,67.1222 320.8338,67.1222 C317.8078,67.1222 316.0538,65.6582 316.0538,63.2702 C316.0538,61.2642 318.1158,59.4182 321.0518,59.4182 C323.9878,59.4182 325.2598,60.9122 325.2598,62.8742 L325.2598,63.1102 L317.9398,63.1102 Z" id="Fill-28" fill="#002E5E"/>
      <path d="M334.1368,59.623 L335.8888,59.623 L335.8248,60.795 L335.8668,60.795 C336.7868,59.915 338.2768,59.417 339.5708,59.417 C342.0928,59.417 342.9028,60.283 342.9028,61.629 C342.9028,62.185 342.8808,62.743 342.8808,63.299 L342.8368,66.917 L341.0848,66.917 L341.1268,63.637 C341.1268,62.993 341.1488,62.347 341.1488,61.629 C341.1488,60.837 340.3588,60.473 339.1548,60.473 C338.0148,60.473 337.0088,60.913 335.8888,61.821 L335.8008,66.917 L334.0488,66.917 L334.1368,59.623 Z" id="Fill-30" fill="#002E5E"/>
      <path d="M351.2968,59.623 L351.2968,60.501 L353.1588,60.501 L353.1148,63.167 C353.0928,64.177 353.0928,64.779 353.0928,65.261 C353.0928,66.419 353.7508,67.123 355.4368,67.123 C356.4028,67.123 357.4548,66.815 358.1768,66.493 L357.6068,65.731 C357.1908,65.907 356.4448,66.157 355.8528,66.157 C355.1088,66.157 354.8448,65.819 354.8448,65.219 C354.8448,64.851 354.8448,64.311 354.8688,63.491 L354.9128,60.501 L357.9148,60.501 L357.9148,59.623 L354.9328,59.623 L354.9788,56.927 L353.2248,56.927 L353.1808,59.623 L351.2968,59.623 Z" id="Fill-32" fill="#002E5E"/>
      <path d="M372.6856,62.3182 C372.6856,61.2762 372.0276,60.2962 370.2516,60.2962 C368.6096,60.2962 367.5576,61.3222 367.2716,62.3182 L372.6856,62.3182 Z M367.1196,63.1102 L367.1196,63.3582 C367.1196,64.8802 367.9756,66.2442 370.2096,66.2442 C371.4596,66.2442 372.3796,65.7602 373.3196,65.1902 L374.1756,65.8182 C373.0596,66.5662 371.6336,67.1222 370.0116,67.1222 C366.9876,67.1222 365.2336,65.6582 365.2336,63.2702 C365.2336,61.2642 367.2956,59.4182 370.2296,59.4182 C373.1676,59.4182 374.4396,60.9122 374.4396,62.8742 L374.4396,63.1102 L367.1196,63.1102 Z" id="Fill-34" fill="#002E5E"/>
      <path d="M55.875,90.41 C47.309,97.036 39.711,107.14 25.337,106.242 C19.865,105.9 14.825,102.556 14.263,102.11 L13.681,102.5 C13.681,102.5 21.513,110.332 32.821,109.774 C44.125,109.214 47.207,103.828 56.835,99.234 C64.921,95.38 72.657,97.432 75.397,98.648 L81.393,86.988 C74.325,84.106 64.443,83.784 55.875,90.41" id="Fill-36" fill="#002E5E"/>
      <path d="M63.6094,45.1758 C33.0954,57.7798 21.6354,34.1318 21.6354,34.1318 L20.9454,34.3238 C23.1734,38.4878 31.7974,59.2998 64.2114,51.5698 C83.7074,46.9178 91.8754,47.5178 99.2214,52.3418 L105.6014,39.9278 C91.2494,33.3838 79.1834,38.7438 63.6094,45.1758" id="Fill-38" fill="#002E5E"/>
      <path d="M91.2344,60.6796 C79.2544,55.0216 65.9384,61.1796 51.2924,68.1676 C36.6484,75.1556 28.4884,78.2336 17.3904,77.8116 C5.5544,77.3596 0.6684,67.3896 0.6684,67.3896 L0.0004,67.5576 C0.0004,67.5576 2.3984,74.4176 8.7624,78.3636 C25.3384,88.6336 42.6404,77.6516 62.9424,73.3276 C75.3624,70.6816 80.8844,71.3076 87.3204,75.4476 L94.1364,62.1996 C93.2504,61.6796 92.2704,61.1716 91.2344,60.6796" id="Fill-40" fill="#002E5E"/>
      <path d="M160.3906,94.9764 C160.3906,76.7624 175.9766,63.3044 197.2426,59.9904 L197.6166,59.3504 C196.6546,59.1424 196.6906,59.1424 195.2686,58.8904 C177.6086,55.7724 168.4766,62.8004 168.4766,62.8004 L167.3706,62.8004 C171.6846,53.5224 179.6686,52.4424 179.6686,52.4424 L179.4846,51.9284 C169.9306,51.9284 160.6806,58.7004 160.6806,58.7004 L160.0346,58.2684 C168.3526,43.2244 178.6886,40.9264 178.6886,40.9264 L178.8366,40.2004 C162.6086,42.6484 148.5986,58.7004 148.5986,58.7004 L147.7366,58.4844 C157.0826,33.1404 166.0546,25.9924 166.0546,25.9924 L165.4566,25.5444 C153.2726,30.9704 135.6086,58.1584 135.6086,58.1584 L134.7526,57.5104 C135.7666,50.1904 145.8786,33.7484 145.8786,33.7484 L145.2066,33.5104 C136.1866,38.6304 128.1446,48.9704 128.1446,48.9704 L127.2846,48.1064 C132.7426,24.2704 148.2406,11.2904 148.2406,11.2904 L147.6766,10.9124 C131.0186,17.3784 119.9626,34.7264 119.5306,35.1844 L118.9766,34.8484 C121.1526,23.9684 126.9966,0.7184 126.9966,0.7184 L126.1166,0.0004 L105.5986,39.9284 C109.7706,41.8964 113.4786,47.2684 116.1986,52.5024 C130.9126,80.7964 143.5086,72.5624 150.5946,67.7464 L150.8826,68.2964 C150.8826,68.2964 130.5906,89.2624 115.7186,70.3004 C109.3366,62.1584 107.2486,58.3424 99.2166,52.3344 L94.1486,62.1904 C101.5266,65.7144 105.3146,77.3504 112.0186,84.3784 C114.6266,87.1144 124.6086,99.4764 147.4486,82.9404 L147.7406,83.5704 C147.7406,83.5704 123.8826,108.6524 104.8066,91.4904 C97.6826,85.0824 95.5426,80.6204 87.3406,75.4584 L81.3926,86.9884 C81.5306,87.0424 87.1766,90.8104 94.3366,99.2264 C104.7306,111.4424 121.8206,113.1124 134.0706,107.4684 C152.2006,99.1164 160.5926,106.6944 162.4846,107.1944 C162.4846,107.1944 162.6646,107.0824 162.6606,107.0604 C162.6346,106.9924 162.6126,106.9284 162.5906,106.8624 C161.1646,103.2584 160.3906,99.2844 160.3906,94.9764" id="Fill-42" fill="#5BBF21"/>
      <path d="M104.8066,91.4902 C123.8826,108.6522 147.7406,83.5702 147.7406,83.5702 L147.4486,82.9422 C124.6086,99.4762 114.6266,87.1142 112.0186,84.3782 C105.3146,77.3562 101.5106,65.7222 94.1366,62.1962 L87.3246,75.4482 C95.5206,80.6142 97.6806,85.0822 104.8066,91.4902" id="Fill-44" fill="#FEFEFE"/>
      <path d="M99.2208,52.3408 C107.2548,58.3448 109.3368,62.1588 115.7188,70.3008 C130.5908,89.2608 150.8828,68.2968 150.8828,68.2968 L150.5948,67.7468 C143.5088,72.5628 130.9128,80.7968 116.1988,52.5028 C113.4788,47.2688 109.7708,41.8968 105.5968,39.9268 L99.2208,52.3408 Z" id="Fill-46" fill="#FEFEFE"/>
    </g>
  </g>
</svg>