<svg id="a634e6eb-7234-47cb-abaa-abf7c4171215" data-name="Laag 1" xmlns="http://www.w3.org/2000/svg" viewBox="0 0 869.3 156.2"><defs><style>.b04208f6-610d-48b1-a3fa-58dfff5c85b5{fill:#009bd5;}.f72fd7c2-a18b-492d-b4eb-f012af9d2dd1{fill:#055170;}.fc13ce7f-11b7-4662-9151-0a3b30f81433{fill:#2ea9e1;}.f28c949c-0053-4253-a224-0f3de4695982{fill:#39b2e7;}.b8914f86-e6bb-4447-825e-1bd8ac10bc30{fill:#0080b3;}</style></defs><polygon class="b04208f6-610d-48b1-a3fa-58dfff5c85b5" points="30.1 104.1 0 156.2 60.1 156.2 30.1 104.1"/><polygon class="f72fd7c2-a18b-492d-b4eb-f012af9d2dd1" points="30.1 104.1 60.1 156.2 90.2 104.1 30.1 104.1"/><polygon class="fc13ce7f-11b7-4662-9151-0a3b30f81433" points="60.1 52.1 30.1 104.1 90.2 104.1 60.1 52.1"/><polygon class="f28c949c-0053-4253-a224-0f3de4695982" points="60.1 52.1 90.2 104.1 120.2 52.1 60.1 52.1"/><polygon class="b8914f86-e6bb-4447-825e-1bd8ac10bc30" points="90.2 0 60.1 52.1 120.2 52.1 90.2 0"/><polygon class="fc13ce7f-11b7-4662-9151-0a3b30f81433" points="90.2 0 120.2 52.1 150.3 0 90.2 0"/><polygon class="b04208f6-610d-48b1-a3fa-58dfff5c85b5" points="210.4 104.1 240.4 156.2 180.3 156.2 210.4 104.1"/><polygon class="f72fd7c2-a18b-492d-b4eb-f012af9d2dd1" points="210.4 104.1 180.3 156.2 150.3 104.1 210.4 104.1"/><polygon class="fc13ce7f-11b7-4662-9151-0a3b30f81433" points="180.3 52.1 210.4 104.1 150.3 104.1 180.3 52.1"/><path class="f72fd7c2-a18b-492d-b4eb-f012af9d2dd1" d="M418.6,67.5h13.5l31.3,41.2V67.5H478v66.9H465.4L433.1,91.9v42.5H418.6Z" transform="translate(-28.4 -22.6)"/><path class="f72fd7c2-a18b-492d-b4eb-f012af9d2dd1" d="M607.7,67.5h14.7V121h33.3v13.4h-48Z" transform="translate(-28.4 -22.6)"/><path class="f72fd7c2-a18b-492d-b4eb-f012af9d2dd1" d="M692.3,108,666.6,67.5h17.2l15.9,26.9L716,67.5h16.7L707,107.7v26.7H692.3Z" transform="translate(-28.4 -22.6)"/><path class="f72fd7c2-a18b-492d-b4eb-f012af9d2dd1" d="M758,123.2l36.8-42.8H759.2V67.5h54.5V78.7l-36.8,42.8h36.8v12.9H758Z" transform="translate(-28.4 -22.6)"/><polygon class="f72fd7c2-a18b-492d-b4eb-f012af9d2dd1" points="332.1 44.4 318.6 44.4 289.9 111.7 304.9 111.7 311 96.7 311 96.7 316.3 83.8 316.3 83.8 325.2 62.1 334 83.8 334 83.8 339.3 96.7 339.3 96.7 345.4 111.7 360.8 111.7 332.1 44.4"/><polygon class="f72fd7c2-a18b-492d-b4eb-f012af9d2dd1" points="833 58 844.9 58 868.8 58 868.8 44.9 818.4 44.9 818.4 58 833 58"/><polygon class="f72fd7c2-a18b-492d-b4eb-f012af9d2dd1" points="833 98.7 833 84.6 864.5 84.6 864.5 71.6 844.9 71.6 833 71.6 818.4 71.6 818.4 111.7 869.3 111.7 869.3 98.7 833 98.7"/><polygon class="f72fd7c2-a18b-492d-b4eb-f012af9d2dd1" points="521.2 44.4 507.7 44.4 479 111.7 494 111.7 500.1 96.7 500.1 96.7 505.4 83.8 505.4 83.8 514.3 62.1 523.1 83.8 523.1 83.8 528.4 96.7 528.4 96.7 534.5 111.7 549.9 111.7 521.2 44.4"/></svg>